<svg width="32" height="32" viewBox="0 0 32 32" fill="none" xmlns="http://www.w3.org/2000/svg">
<path fill-rule="evenodd" clip-rule="evenodd" d="M32 8.66667C32 11.7543 30.3851 14.4649 27.9541 16C30.3851 17.5351 32 20.2457 32 23.3333C32 28.1198 28.1198 32 23.3333 32C20.2458 32 17.5352 30.3853 16 27.9543C14.4648 30.3853 11.7542 32 8.66667 32C3.88021 32 0 28.1198 0 23.3333C0 20.2457 1.61491 17.5351 4.0459 16C1.61491 14.4649 0 11.7543 0 8.66667C0 3.88021 3.88021 0 8.66667 0C11.7542 0 14.4648 1.61466 16 4.04574C17.5352 1.61466 20.2458 0 23.3333 0C28.1198 0 32 3.88021 32 8.66667ZM13.2874 16C14.3809 15.3095 15.3096 14.3811 16 13.2876C16.6904 14.3811 17.6191 15.3095 18.7126 16C17.6191 16.6905 16.6904 17.6189 16 18.7125C15.3096 17.6189 14.3809 16.6905 13.2874 16Z" fill="black"/>
</svg>
