<svg width="115" height="24" viewBox="0 0 115 24" fill="none" xmlns="http://www.w3.org/2000/svg">
<path fill-rule="evenodd" clip-rule="evenodd" d="M24.016 6.5C24.016 8.81573 22.804 10.8487 20.9796 12C22.804 13.1513 24.016 15.1843 24.016 17.5C24.016 21.0898 21.1039 24 17.5117 24C15.1945 24 13.1601 22.789 12.008 20.9657C10.8559 22.789 8.82156 24 6.50434 24C2.9121 24 0 21.0898 0 17.5C0 15.1843 1.21199 13.1513 3.03645 12C1.21199 10.8487 0 8.81573 0 6.5C0 2.91016 2.9121 0 6.50434 0C8.82156 0 10.8559 1.211 12.008 3.0343C13.1601 1.211 15.1945 0 17.5117 0C21.1039 0 24.016 2.91016 24.016 6.5ZM9.97223 12C10.7928 11.4821 11.4898 10.7858 12.008 9.9657C12.5262 10.7858 13.2232 11.4821 14.0438 12C13.2232 12.5179 12.5262 13.2142 12.008 14.0344C11.4898 13.2142 10.7928 12.5179 9.97223 12Z" fill="black"/>
<path d="M41.8279 5.72H31.541V20H41.968V17.84H34.0427V13.66H41.2475V11.62H34.0427V7.88H41.8279V5.72Z" fill="black"/>
<path d="M40.0667 1.48H37.3649L35.5637 4.34H37.2248L40.0667 1.48Z" fill="black"/>
<path d="M49.2305 11.68C49.6574 12 49.9176 12.48 50.011 13.12H52.2925C52.2392 12.48 52.0791 11.9267 51.8122 11.46C51.5454 10.9933 51.1985 10.6067 50.7715 10.3C50.3579 9.99333 49.8776 9.76667 49.3306 9.62C48.7969 9.46 48.2298 9.38 47.6294 9.38C46.7755 9.38 46.0284 9.52667 45.3879 9.82C44.7609 10.1 44.2338 10.4933 43.8069 11C43.3799 11.4933 43.0597 12.08 42.8462 12.76C42.6328 13.44 42.526 14.1667 42.526 14.94C42.526 15.7 42.6328 16.4067 42.8462 17.06C43.0731 17.7133 43.3999 18.28 43.8269 18.76C44.2538 19.2267 44.7742 19.6 45.3879 19.88C46.015 20.1467 46.7355 20.28 47.5494 20.28C48.8836 20.28 49.951 19.9267 50.7515 19.22C51.5654 18.5 52.0791 17.4667 52.2925 16.12H50.011C49.9043 16.8667 49.6308 17.4467 49.1905 17.86C48.7635 18.2733 48.2165 18.48 47.5494 18.48C47.0557 18.48 46.6354 18.38 46.2885 18.18C45.9416 17.9667 45.6548 17.6933 45.428 17.36C45.2145 17.0267 45.0544 16.6467 44.9476 16.22C44.8542 15.7933 44.8075 15.3667 44.8075 14.94C44.8075 14.1533 44.9009 13.52 45.0877 13.04C45.2745 12.5467 45.508 12.1667 45.7882 11.9C46.0684 11.62 46.3753 11.4333 46.7088 11.34C47.0424 11.2333 47.3559 11.18 47.6494 11.18C48.2899 11.18 48.8169 11.3467 49.2305 11.68Z" fill="black"/>
<path d="M55.6881 5.72H53.4066V20H55.6881V5.72Z" fill="black"/>
<path fill-rule="evenodd" clip-rule="evenodd" d="M66.1393 18.3C66.0726 18.18 66.0392 17.98 66.0392 17.7V12.38C66.0392 11.8333 65.9191 11.3733 65.679 11C65.4388 10.6133 65.1186 10.3 64.7183 10.06C64.3314 9.82 63.8911 9.64667 63.3974 9.54C62.9038 9.43333 62.4035 9.38 61.8964 9.38C61.3227 9.38 60.7624 9.43333 60.2153 9.54C59.6683 9.64667 59.1746 9.83333 58.7343 10.1C58.3074 10.3667 57.9538 10.72 57.6736 11.16C57.3934 11.6 57.2333 12.1533 57.1933 12.82H59.4748C59.5282 12.26 59.7617 11.8467 60.1753 11.58C60.5889 11.3133 61.1159 11.18 61.7564 11.18C61.9832 11.18 62.2233 11.2 62.4768 11.24C62.7303 11.2667 62.9572 11.3333 63.1573 11.44C63.3708 11.5333 63.5442 11.6733 63.6776 11.86C63.8244 12.0467 63.8978 12.2867 63.8978 12.58C63.8978 12.9133 63.8111 13.1667 63.6376 13.34C63.4775 13.5 63.2507 13.62 62.9572 13.7C62.677 13.78 62.3501 13.84 61.9765 13.88C61.6029 13.9067 61.2093 13.96 60.7957 14.04C60.3154 14.0933 59.8351 14.1733 59.3547 14.28C58.8878 14.3733 58.4608 14.5333 58.0739 14.76C57.7003 14.9867 57.3934 15.3 57.1533 15.7C56.9265 16.1 56.8131 16.62 56.8131 17.26C56.8131 17.7667 56.9065 18.2133 57.0932 18.6C57.2934 18.9733 57.5535 19.2867 57.8738 19.54C58.2073 19.78 58.5876 19.96 59.0145 20.08C59.4415 20.2133 59.8884 20.28 60.3554 20.28C60.9692 20.28 61.6029 20.18 62.2567 19.98C62.9238 19.78 63.4842 19.46 63.9378 19.02C64.0312 19.4867 64.2313 19.8133 64.5382 20C64.8451 20.1867 65.232 20.28 65.699 20.28C65.7924 20.28 65.9058 20.2733 66.0392 20.26C66.1726 20.2467 66.3061 20.2267 66.4395 20.2C66.5729 20.1733 66.6997 20.14 66.8197 20.1C66.9532 20.0733 67.0599 20.0467 67.1399 20.02V18.44C67.0199 18.4667 66.9131 18.48 66.8197 18.48H66.5796C66.3661 18.48 66.2193 18.42 66.1393 18.3ZM62.4768 15.24C62.9838 15.1867 63.4108 15.0467 63.7577 14.82V16.52C63.7577 16.88 63.671 17.1867 63.4975 17.44C63.3241 17.68 63.1039 17.88 62.8371 18.04C62.5836 18.2 62.3101 18.3133 62.0165 18.38C61.723 18.4467 61.4495 18.48 61.196 18.48C60.9958 18.48 60.769 18.46 60.5155 18.42C60.2754 18.38 60.0485 18.3133 59.8351 18.22C59.6349 18.1133 59.4615 17.9733 59.3147 17.8C59.168 17.6267 59.0946 17.4133 59.0946 17.16C59.0946 16.8667 59.1413 16.62 59.2347 16.42C59.3414 16.2067 59.4815 16.04 59.655 15.92C59.8284 15.7867 60.0285 15.6867 60.2554 15.62C60.4822 15.54 60.7157 15.48 60.9558 15.44C61.4628 15.3467 61.9698 15.28 62.4768 15.24Z" fill="black"/>
<path d="M68.374 9.66H66.6529V11.36H68.374V17.46C68.3874 17.8867 68.4274 18.2667 68.4941 18.6C68.5742 18.9333 68.7143 19.2133 68.9144 19.44C69.1279 19.6533 69.4147 19.82 69.775 19.94C70.1486 20.0467 70.6356 20.1 71.236 20.1C71.4895 20.1 71.7363 20.0867 71.9765 20.06C72.2166 20.0333 72.4634 20.0067 72.7169 19.98V18.22C72.5568 18.26 72.3967 18.2867 72.2366 18.3H71.7563C71.5028 18.3 71.3027 18.2733 71.1559 18.22C71.0091 18.1533 70.8957 18.06 70.8157 17.94C70.749 17.82 70.7023 17.6733 70.6756 17.5C70.6622 17.3267 70.6556 17.12 70.6556 16.88V11.36H72.7169V9.66H70.6556V6.56H68.374V9.66Z" fill="black"/>
<path fill-rule="evenodd" clip-rule="evenodd" d="M85.9123 20H88.0737V5.72H85.7922V11H85.7522C85.5788 10.72 85.3586 10.48 85.0918 10.28C84.8383 10.0667 84.5581 9.89333 84.2512 9.76C83.9443 9.62667 83.6241 9.53333 83.2906 9.48C82.957 9.41333 82.6301 9.38 82.3099 9.38C81.7495 9.38 81.1958 9.48667 80.6488 9.7C80.1151 9.9 79.6348 10.22 79.2078 10.66C78.7942 11.1 78.4607 11.66 78.2072 12.34C77.9537 13.02 77.8269 13.8267 77.8269 14.76C77.8269 15.5333 77.927 16.26 78.1271 16.94C78.3273 17.6067 78.6275 18.1867 79.0277 18.68C79.428 19.1733 79.9283 19.5667 80.5287 19.86C81.1425 20.14 81.8563 20.28 82.6701 20.28C83.3239 20.28 83.9443 20.1533 84.5314 19.9C85.1185 19.6333 85.5654 19.2 85.8723 18.6H85.9123V20ZM80.2685 16.24C80.1618 15.8133 80.1084 15.38 80.1084 14.94C80.1084 14.4733 80.1551 14.02 80.2485 13.58C80.3553 13.1267 80.5221 12.7267 80.7489 12.38C80.989 12.02 81.2892 11.7333 81.6495 11.52C82.0231 11.2933 82.4767 11.18 83.0104 11.18C83.891 11.18 84.5848 11.5 85.0918 12.14C85.6121 12.78 85.8723 13.6733 85.8723 14.82C85.8723 15.2733 85.8122 15.72 85.6922 16.16C85.5854 16.5867 85.412 16.9733 85.1718 17.32C84.945 17.6667 84.6448 17.9467 84.2712 18.16C83.911 18.3733 83.4774 18.48 82.9703 18.48C82.4767 18.48 82.0497 18.38 81.6895 18.18C81.3293 17.98 81.029 17.7133 80.7889 17.38C80.5621 17.0467 80.3886 16.6667 80.2685 16.24Z" fill="black"/>
<path d="M91.0623 9.6C90.9022 9.93333 90.582 10.1333 90.1017 10.2V11.36C90.8755 11.2533 91.4826 10.9333 91.9229 10.4C92.3765 9.85333 92.6033 9.19333 92.6033 8.42V5.72H90.1017V8.42H91.3225C91.3225 8.86 91.2358 9.25333 91.0623 9.6Z" fill="black"/>
<path fill-rule="evenodd" clip-rule="evenodd" d="M103.797 5.98C102.957 5.58 102.003 5.38 100.935 5.38C99.8679 5.38 98.9073 5.58 98.0534 5.98C97.2128 6.38 96.499 6.92 95.912 7.6C95.3249 8.28 94.8713 9.07333 94.551 9.98C94.2442 10.8867 94.0907 11.8467 94.0907 12.86C94.0907 13.8867 94.2442 14.8533 94.551 15.76C94.8713 16.6667 95.3249 17.46 95.912 18.14C96.499 18.82 97.2128 19.36 98.0534 19.76C98.9073 20.1467 99.8679 20.34 100.935 20.34C102.003 20.34 102.957 20.1467 103.797 19.76C104.651 19.36 105.372 18.82 105.959 18.14C106.546 17.46 106.993 16.6667 107.3 15.76C107.62 14.8533 107.78 13.8867 107.78 12.86C107.78 11.8467 107.62 10.8867 107.3 9.98C106.993 9.07333 106.546 8.28 105.959 7.6C105.372 6.92 104.651 6.38 103.797 5.98ZM98.954 7.88C99.5144 7.57333 100.175 7.42 100.935 7.42C101.696 7.42 102.35 7.57333 102.897 7.88C103.457 8.18667 103.911 8.6 104.258 9.12C104.604 9.62667 104.858 10.2067 105.018 10.86C105.191 11.5133 105.278 12.18 105.278 12.86C105.278 13.54 105.191 14.2067 105.018 14.86C104.858 15.5133 104.604 16.1 104.258 16.62C103.911 17.1267 103.457 17.5333 102.897 17.84C102.35 18.1467 101.696 18.3 100.935 18.3C100.175 18.3 99.5144 18.1467 98.954 17.84C98.4069 17.5333 97.96 17.1267 97.6131 16.62C97.2662 16.1 97.006 15.5133 96.8326 14.86C96.6724 14.2067 96.5924 13.54 96.5924 12.86C96.5924 12.18 96.6724 11.5133 96.8326 10.86C97.006 10.2067 97.2662 9.62667 97.6131 9.12C97.96 8.6 98.4069 8.18667 98.954 7.88Z" fill="black"/>
<path d="M111.077 9.66H108.936V20H111.217V15.08C111.217 14.5067 111.291 14 111.438 13.56C111.584 13.12 111.785 12.7533 112.038 12.46C112.292 12.1533 112.585 11.9267 112.919 11.78C113.266 11.62 113.632 11.54 114.019 11.54C114.179 11.54 114.34 11.5533 114.5 11.58C114.673 11.5933 114.84 11.6133 115 11.64V9.44L114.68 9.4C114.586 9.38667 114.406 9.38 114.139 9.38C113.793 9.38 113.452 9.44667 113.119 9.58C112.785 9.71333 112.478 9.89333 112.198 10.12C111.931 10.3333 111.698 10.5733 111.498 10.84C111.311 11.1067 111.184 11.38 111.117 11.66H111.077V9.66Z" fill="black"/>
</svg>
