<svg width="16" height="16" viewBox="0 0 16 16" fill="none" xmlns="http://www.w3.org/2000/svg">
<path d="M9.26667 6.62667L8.02667 3.70667L6.78667 6.63333L3.62 6.90667L6.02667 9L5.30667 12.0867L8.02667 10.4467L10.7533 12.0867L10.0267 9L12.4333 6.90667L9.26667 6.62667ZM11.7533 13.4667L8.02667 11.2267L4.30667 13.4667L5.28 9.23333L2 6.38L6.32667 6L8.02667 2L9.72667 6L14.0533 6.38L10.7733 9.22667L11.7533 13.4667Z" fill="black"/>
<path d="M9.26667 6.62667L8.02667 3.70667L6.78667 6.63333L3.62 6.90667L6.02667 9L5.30667 12.0867L8.02667 10.4467L10.7533 12.0867L10.0267 9L12.4333 6.90667L9.26667 6.62667Z" fill="black"/>
</svg>
