<svg width="20" height="20" viewBox="0 0 20 20" fill="none" xmlns="http://www.w3.org/2000/svg">
<g clip-path="url(#clip0_118_13)">
<path fill-rule="evenodd" clip-rule="evenodd" d="M20 10C20 15.5228 15.5228 20 10 20C4.47715 20 0 15.5228 0 10C0 4.47715 4.47715 0 10 0C15.5228 0 20 4.47715 20 10ZM10.3583 7.38312C9.37699 7.78811 7.42995 8.61365 4.51718 9.89091C4.04989 10.0778 3.80067 10.2647 3.76952 10.4361C3.72831 10.7383 4.11114 10.8588 4.62953 11.0219C4.69891 11.0438 4.77073 11.0664 4.84428 11.0903C5.3583 11.2616 6.04366 11.4641 6.40192 11.4641C6.72902 11.4641 7.08727 11.3395 7.49226 11.0591C10.2181 9.22113 11.62 8.28655 11.7134 8.27097C11.7757 8.25539 11.8536 8.23982 11.9159 8.28655C11.9696 8.32677 11.9655 8.40162 11.9633 8.44155C11.963 8.44801 11.9627 8.45355 11.9627 8.45789C11.9289 8.61564 10.5745 9.87388 9.7748 10.6168C9.46907 10.9008 9.24443 11.1095 9.20566 11.1526C9.12892 11.2315 9.05072 11.3062 8.97542 11.3783C8.50045 11.8325 8.14057 12.1767 8.98759 12.7414C9.44352 13.0398 9.79799 13.2809 10.1613 13.528C10.4807 13.7452 10.807 13.9671 11.215 14.2367C11.3343 14.3129 11.4486 14.3926 11.5602 14.4705C11.9735 14.7586 12.35 15.0212 12.8038 14.9844C13.0686 14.9532 13.349 14.704 13.4891 13.9563C13.8318 12.1962 14.4705 8.34885 14.6262 6.77564C14.6418 6.63546 14.6262 6.46412 14.6106 6.38624C14.5951 6.30835 14.5639 6.19932 14.4705 6.12144C14.3458 6.02798 14.1589 6.0124 14.081 6.0124C13.7072 6.02798 13.1309 6.23047 10.3583 7.38312Z" fill="#828282"/>
</g>
<defs>
<clipPath id="clip0_118_13">
<rect width="20" height="20" fill="white"/>
</clipPath>
</defs>
</svg>
